HIERARCHY
ROOT Hips
{
  OFFSET -25.4992 47.4658 0.522821
  CHANNELS 6 Xposition Yposition Zposition Zrotation Xrotation Yrotation
  JOINT Bip01_Pelvis
  {
    OFFSET 0 0 0
    CHANNELS 6 Xposition Yposition Zposition Zrotation Xrotation Yrotation
    JOINT Bip01_Spine
    {
      OFFSET 7.92815 1.03427 -0.957866
      CHANNELS 6 Xposition Yposition Zposition Zrotation Xrotation Yrotation
      JOINT Bip01_Spine1
      {
        OFFSET 14.2482 -0.00839019 0.000894789
        CHANNELS 6 Xposition Yposition Zposition Zrotation Xrotation Yrotation
        JOINT Bip01_Neck
        {
          OFFSET 16.1384 -3.98645 0.000135839
          CHANNELS 6 Xposition Yposition Zposition Zrotation Xrotation Yrotation
          JOINT Bip01_Neck1
          {
            OFFSET 9.69266 -0.00491233 0
            CHANNELS 6 Xposition Yposition Zposition Zrotation Xrotation Yrotation
            JOINT Bip01_Head
            {
              OFFSET 6.2355 0 0
              CHANNELS 6 Xposition Yposition Zposition Zrotation Xrotation Yrotation
              JOINT BN_Mouth_01
              {
                OFFSET 4.58056 2.14338 0
                CHANNELS 6 Xposition Yposition Zposition Zrotation Xrotation Yrotation
                End Site
                {
                  OFFSET 0 0 0
                }
              }
            }
          }
          JOINT Bip01_L_Clavicle
          {
            OFFSET -0.933029 -3.98291 -6.88005
            CHANNELS 6 Xposition Yposition Zposition Zrotation Xrotation Yrotation
            JOINT Bip01_L_UpperArm
            {
              OFFSET 15.6802 0 0
              CHANNELS 6 Xposition Yposition Zposition Zrotation Xrotation Yrotation
              JOINT Bip01_L_Forearm
              {
                OFFSET 15.3149 0 0
                CHANNELS 6 Xposition Yposition Zposition Zrotation Xrotation Yrotation
                JOINT Bip01_L_Hand
                {
                  OFFSET 16.178 0 0
                  CHANNELS 6 Xposition Yposition Zposition Zrotation Xrotation Yrotation
                  JOINT Bip01_L_Finger0
                  {
                    OFFSET 12.9992 0 0
                    CHANNELS 6 Xposition Yposition Zposition Zrotation Xrotation Yrotation
                    End Site
                    {
                      OFFSET 0 0 0
                    }
                  }
                }
              }
              JOINT BN__UpperArm_L_01
              {
                OFFSET 4.92586 2.56729 1.95639
                CHANNELS 6 Xposition Yposition Zposition Zrotation Xrotation Yrotation
                End Site
                {
                  OFFSET 0 0 0
                }
              }
            }
          }
          JOINT Bip01_R_Clavicle
          {
            OFFSET -1.90751 -3.34722 7.0168
            CHANNELS 6 Xposition Yposition Zposition Zrotation Xrotation Yrotation
            JOINT Bip01_R_UpperArm
            {
              OFFSET 15.6801 0 0
              CHANNELS 6 Xposition Yposition Zposition Zrotation Xrotation Yrotation
              JOINT Bip01_R_Forearm
              {
                OFFSET 15.3149 0 0
                CHANNELS 6 Xposition Yposition Zposition Zrotation Xrotation Yrotation
                JOINT Bip01_R_Hand
                {
                  OFFSET 16.1779 0 0
                  CHANNELS 6 Xposition Yposition Zposition Zrotation Xrotation Yrotation
                  JOINT Bip01_R_Finger0
                  {
                    OFFSET 12.9991 0 0
                    CHANNELS 6 Xposition Yposition Zposition Zrotation Xrotation Yrotation
                    End Site
                    {
                      OFFSET 0 0 0
                    }
                  }
                }
              }
              JOINT BN__UpperArm_R_01
              {
                OFFSET 4.92584 2.56728 -1.95638
                CHANNELS 6 Xposition Yposition Zposition Zrotation Xrotation Yrotation
                End Site
                {
                  OFFSET 0 0 0
                }
              }
            }
          }
        }
      }
      JOINT Bip01_L_Thigh
      {
        OFFSET -8.91231 -1.85462 5.82833
        CHANNELS 6 Xposition Yposition Zposition Zrotation Xrotation Yrotation
        JOINT Bip01_L_Calf
        {
          OFFSET 15.7566 0 0
          CHANNELS 6 Xposition Yposition Zposition Zrotation Xrotation Yrotation
          JOINT Bip01_L_HorseLink
          {
            OFFSET 16.2363 0 0
            CHANNELS 6 Xposition Yposition Zposition Zrotation Xrotation Yrotation
            JOINT Bip01_L_Foot
            {
              OFFSET 13.9816 0 0
              CHANNELS 6 Xposition Yposition Zposition Zrotation Xrotation Yrotation
              JOINT Bip01_L_Toe0
              {
                OFFSET 7.68594 5.03696 0
                CHANNELS 6 Xposition Yposition Zposition Zrotation Xrotation Yrotation
                End Site
                {
                  OFFSET 0 0 0
                }
              }
            }
          }
        }
      }
      JOINT Bip01_R_Thigh
      {
        OFFSET -6.80264 -1.57702 -6.62463
        CHANNELS 6 Xposition Yposition Zposition Zrotation Xrotation Yrotation
        JOINT Bip01_R_Calf
        {
          OFFSET 15.7566 0 0
          CHANNELS 6 Xposition Yposition Zposition Zrotation Xrotation Yrotation
          JOINT Bip01_R_HorseLink
          {
            OFFSET 16.2363 0 0
            CHANNELS 6 Xposition Yposition Zposition Zrotation Xrotation Yrotation
            JOINT Bip01_R_Foot
            {
              OFFSET 13.9816 0 0
              CHANNELS 6 Xposition Yposition Zposition Zrotation Xrotation Yrotation
              JOINT Bip01_R_Toe0
              {
                OFFSET 7.68597 5.03696 0
                CHANNELS 6 Xposition Yposition Zposition Zrotation Xrotation Yrotation
                End Site
                {
                  OFFSET 0 0 0
                }
              }
            }
          }
        }
      }
    }
    JOINT BN_Tail_01
    {
      OFFSET -7.9584 -2.82211 0
      CHANNELS 6 Xposition Yposition Zposition Zrotation Xrotation Yrotation
      JOINT BN_Tail_02
      {
        OFFSET 10.9082 0 0.00113176
        CHANNELS 6 Xposition Yposition Zposition Zrotation Xrotation Yrotation
        End Site
        {
          OFFSET 0 0 0
        }
      }
    }
  }
}
MOTION
Frames:	4
Frame Time:	0.0333333
-24.1804 43.8403 -6.4272e-006 -88.9338 -83.373 11.6236 0 -2.38419e-007 0 -89.9441 -3.50835e-015 -90 7.98488 1.06468 -3.09944e-005 10.9304 0.196692 0.550312 14.2467 -0.00817108 -0.000178099 -15.2819 1.18266 -11.8147 16.1424 -3.99012 0.000285685 -18.9305 -2.14534 -1.70169 9.69215 -0.00480652 0.00028038 -13.7466 -3.24677 6.87258 6.2355 -1.90735e-006 -4.17232e-007 -22.1388 0.552362 -2.42223 4.58057 2.14338 -2.22044e-016 -109.928 -0.0191955 -179.986 -3.79558 -1.35249 -6.91895 -161.44 -19.0152 -90.9688 15.6801 3.8147e-006 -1.43051e-006 -34.8092 -29.2667 62.8031 15.3149 -3.81471e-006 -9.53674e-007 -68.6673 1.08589e-006 2.15483e-005 16.1779 -3.57633e-006 -2.86102e-006 153.571 -87.8582 155.7 12.9992 1.9074e-006 -2.74177e-006 -0.502697 1.56006 -0.839551 6.09986 3.12147 -5.23854 -126.021 -79.3773 -131.367 -3.38156 -1.87508 7.0106 -160.83 17.5513 89.0378 15.6801 -3.8147e-006 1.43051e-006 21.4387 82.1968 -135.971 15.3149 -2.3842e-006 1.43051e-006 -46.9623 1.39457e-005 -7.38219e-006 16.178 -1.90737e-006 1.90735e-006 5.30336 84.945 -14.0222 12.9992 -4.76845e-007 3.55268e-015 -2.61737 -0.769932 18.491 5.03888 3.89274 -1.75287 53.9721 -79.3762 48.6257 -8.10224 0.490797 6.2375 -139.706 12.2166 -169.765 15.7566 -4.76837e-007 -9.53673e-007 -61.7217 5.6535e-007 1.71908e-006 16.2363 -1.90735e-006 -9.53673e-007 85.8421 -3.12172e-007 -1.6624e-006 13.9816 -1.19209e-006 -9.53672e-007 -48.7254 -4.28833 -2.15006 7.6859 5.03697 2.86101e-006 89.9962 5.6322e-006 -8.83636e-007 -7.98076 0.447277 -6.39531 -110.862 -0.890311 171.548 15.7566 -1.90735e-006 9.53673e-007 -63.309 1.46342e-006 2.19467e-006 16.2363 3.8147e-006 9.53673e-007 72.303 1.04338e-005 1.2229e-006 13.9816 -3.8147e-006 -9.53673e-007 -6.74771 7.8511 9.10641 7.68596 5.03695 -3.81469e-006 89.9962 -1.75047e-005 2.01243e-006 -7.95841 -2.8221 7.15255e-007 -63.9017 2.4966 -178.309 10.9082 0 0.00121394 29.9375 -0.00750011 26.3631 
-32.7691 37.1444 -1.75554 -87.4881 -74.6392 3.78211 -3.0278e-007 -5.96083e-007 7.16316e-007 -95.0356 -0.327357 -87.8358 7.97914 1.01528 0.394622 -1.37083 5.2321 -11.8625 14.2483 -0.0081108 -0.000361398 3.14877 2.85135 -4.94426 16.1431 -3.99024 2.35786e-006 -6.49278 1.78052 -9.79734 9.69236 -0.00475895 0.000238409 -13.7103 -1.7549 5.87917 6.23547 1.50189e-007 4.70118e-007 -38.3116 -9.59864 9.63212 4.58055 2.14337 4.08467e-007 -92.8329 -0.0281067 -179.973 -4.97724 -1.02068 -6.18775 -176.264 -15.6271 -100.317 15.6801 -1.8432e-007 2.29501e-006 -39.4179 -33.767 56.8963 15.3148 -6.19997e-006 -2.74381e-006 -75.679 -1.84778e-005 -1.61455e-005 16.1778 2.50714e-007 5.67191e-006 -177.383 -78.2257 173.574 12.9991 -3.81469e-006 1.45623e-007 -0.590429 1.50691 -0.772684 6.09984 3.12147 -5.23852 -126.021 -79.3773 -131.367 -2.60521 -0.587364 7.54765 -169.623 20.8464 80.3861 15.6801 -3.86305e-006 2.44414e-006 86.3581 84.4186 158.476 15.3148 9.62032e-007 3.83367e-006 -40.9914 1.81659e-005 -6.05971e-006 16.1779 -7.89787e-006 6.86657e-006 15.4262 82.3819 -15.2007 12.9992 3.14109e-006 5.84138e-006 -1.96886 -2.5601 17.1148 5.03886 3.89272 -1.75286 53.9724 -79.3762 48.6259 -6.54769 -0.660846 7.51395 -150.973 14.4896 -165.443 15.7566 5.88767e-006 -1.12239e-006 -89.0309 -8.50036e-006 4.33391e-006 16.2362 -5.67027e-006 -2.2403e-006 92.2137 6.15872e-006 -9.02243e-006 13.9815 3.01324e-006 -1.04919e-006 -59.0332 3.29046 5.20828 7.68586 5.03694 9.81481e-007 90.1752 0.0860605 0.757447 -9.134 -1.81311 -4.7981 -121.349 -4.3695 162.329 15.7565 4.58289e-007 -3.29239e-006 -105.468 -2.14447e-005 8.96725e-006 16.2363 6.47953e-006 2.22574e-006 96.9365 -4.5791e-005 2.0315e-005 13.9816 1.69649e-006 -6.30802e-006 -20.1628 -2.36297 13.2333 7.68593 5.03693 -7.45937e-006 89.9963 -0.154678 -2.0467e-005 -7.95839 -2.82209 -2.59942e-006 -53.8321 6.02017 -177.867 10.9082 1.88959e-006 0.00121525 34.3439 -1.99574 12.4881 
-38.9406 32.5547 -2.75206 -84.8476 -69.3136 0.179681 8.03332e-007 -4.00188e-007 3.34769e-006 -98.3845 -0.491854 -87.7718 7.97752 0.985046 0.465114 -9.81192 10.1206 -17.5525 14.2499 -0.00805215 -0.00055068 15.5102 4.9604 0.129509 16.1439 -3.99039 -0.000286293 0.738871 3.54939 -14.103 9.69262 -0.00471443 0.000195222 -12.2261 -1.00657 4.66302 6.2355 -3.8205e-006 4.22002e-007 -47.3626 -13.2923 16.8351 4.58057 2.14338 -4.07944e-007 -75.7374 -0.0326996 -179.958 -5.49594 -0.743856 -5.7746 175.975 -12.6261 -104.396 15.6802 3.13177e-006 3.01699e-006 -43.5664 -42.0324 50.4515 15.3149 -7.55146e-006 -3.5365e-006 -76.0558 -1.14042e-005 2.77369e-005 16.1779 4.38023e-006 -4.35746e-007 -174.13 -71.5535 169.639 12.9992 3.06517e-007 1.12267e-006 -0.678053 1.45361 -0.705899 6.09987 3.12147 -5.23854 -126.021 -79.3773 -131.367 -2.1039 0.119747 7.72448 -174.429 23.8867 76.7205 15.6801 -5.07953e-006 1.84782e-006 128.046 81.5192 116.353 15.3149 1.44882e-006 -7.57405e-007 -36.108 -2.21661e-005 -3.39778e-006 16.178 -2.82801e-006 2.13799e-006 26.7743 83.2281 -19.2532 12.9993 -1.3951e-007 -9.02915e-008 -1.36241 -4.36518 15.7564 5.03888 3.89274 -1.75287 53.9724 -79.3762 48.6259 -5.47372 -1.26565 8.20299 -156.08 14.5881 -161.621 15.7566 -7.23231e-007 -3.15061e-006 -100.447 -7.61482e-006 6.64439e-006 16.2363 2.38938e-006 -6.15109e-007 89.8331 6.95555e-006 2.08488e-005 13.9816 -4.26406e-006 -2.09797e-006 -64.199 7.396 12.1758 7.6859 5.03696 3.63857e-006 90.353 0.174498 1.51465 -9.22463 -3.48626 -3.65466 -129.231 -5.82255 156.266 15.7566 -3.37093e-007 3.19671e-006 -123.996 1.38812e-006 2.2899e-005 16.2363 9.70294e-006 -2.58229e-007 105.082 1.52373e-006 -8.28441e-006 13.9816 -6.34742e-006 5.43702e-008 -31.1739 -10.4917 12.221 7.68596 5.03695 -6.35316e-006 89.9963 -0.309423 -3.52862e-006 -7.9584 -2.8221 9.74934e-007 -38.5813 9.52642 -176.537 10.9082 -6.24804e-009 0.00121486 37.8215 -5.86656 -7.66339 
-41.2562 31.3568 -2.45303 -83.867 -69.5018 0.0825302 -3.47123e-007 5.39807e-007 -5.75183e-007 -99.0168 -0.0898568 -91.3638 7.98367 1.03962 -0.0240543 -12.4961 10.8611 -15.1711 14.2516 -0.0079935 -0.000737346 18.6089 5.01802 3.54844 16.1446 -3.99052 -0.000572503 -1.50331 4.27313 -10.9364 9.69283 -0.00466905 0.000155195 -8.2743 -1.66913 2.90234 6.23549 -1.11124e-006 7.14781e-007 -42.693 -6.46848 19.1311 4.58057 2.14337 2.33864e-007 -76.1598 0.0256958 179.97 -5.1513 -0.984176 -6.0505 178.93 -12.8564 -101.302 15.6801 2.24414e-006 2.11033e-006 -43.0899 -45.6372 51.4422 15.3148 -1.37242e-005 -3.29644e-007 -74.1151 -5.51458e-006 4.06011e-005 16.1778 6.96362e-006 1.52073e-006 -174.398 -71.8415 172.047 12.9991 -2.11636e-006 3.78971e-006 -0.765637 1.40028 -0.639192 6.09985 3.12147 -5.23853 -126.021 -79.3772 -131.367 -2.51243 0.055254 7.60352 -173.333 24.8035 81.0864 15.6801 -5.14083e-006 3.55845e-006 -15.0083 85.4807 -99.4687 15.3149 -1.02562e-006 2.2568e-007 -52.3809 -1.78726e-005 -5.84056e-006 16.1779 6.13582e-006 5.52236e-006 86.827 86.8631 -70.2169 12.9992 1.75686e-006 -6.46145e-006 -0.797387 -6.18403 14.4134 5.03888 3.89273 -1.75286 53.9726 -79.3763 48.6261 -5.54046 -1.49829 8.49021 -153.265 13.0046 -161.598 15.7566 -6.42828e-007 -1.43556e-006 -113.938 -6.44273e-006 4.53568e-006 16.2363 -4.39355e-006 -2.98725e-006 98.7461 1.29121e-005 1.64418e-005 13.9815 -6.83341e-007 -2.09246e-006 -61.4713 10.0363 11.2369 7.68589 5.03697 1.45141e-006 90.5295 0.26527 2.27155 -8.78788 -3.87947 -3.48428 -127.539 -8.99914 155.733 15.7566 -1.30771e-006 -1.58596e-006 -124.708 -2.35881e-005 5.8947e-006 16.2363 7.56828e-006 1.6699e-006 112.401 -5.40481e-005 3.20895e-006 13.9816 -7.76474e-007 -5.90882e-006 -39.0869 -11.1655 9.96692 7.68595 5.03695 -6.0457e-006 89.9963 -0.464168 1.37232e-005 -7.9584 -2.8221 4.37872e-007 -30.1657 9.49637 -174.573 10.9082 9.90978e-008 0.00121366 34.2146 -10.3053 -15.6197 
